<?xml version="1.0" encoding="utf-8"?>
<!-- Generator: Adobe Illustrator 22.1.0, SVG Export Plug-In . SVG Version: 6.00 Build 0)  -->
<svg version="1.1" id="Layer_1" xmlns="http://www.w3.org/2000/svg" xmlns:xlink="http://www.w3.org/1999/xlink" x="0px" y="0px"
	 viewBox="0 0 5000 5000" style="enable-background:new 0 0 5000 5000;" xml:space="preserve">
<style type="text/css">
	.st0{fill:#FF5722;}
	.st1{fill:#FFFFFF;}
</style>
<g transform="translate(-27.09796,-27.287332)">
	<g>
		<path class="st0" d="M3021,2768.5c68.9,0,126.4,26.8,172.3,80.4c45.9,45.9,68.9,103.4,68.9,172.3c0,68.9-23,126.4-68.9,172.3
			c-45.9,45.9-103.4,68.9-172.3,68.9h-999.4c-68.9,0-126.4-23-172.3-68.9c-45.9-45.9-68.9-103.4-68.9-172.3
			c0-68.9,23-126.4,68.9-172.3c45.9-53.6,103.4-80.4,172.3-80.4H3021z M2021.7,2033.3c-68.9,0-126.4-23-172.3-68.9
			c-45.9-45.9-68.9-103.4-68.9-172.3c0-68.9,23-126.4,68.9-172.3c45.9-45.9,103.4-68.9,172.3-68.9h643.3c68.9,0,126.4,23,172.3,68.9
			c45.9,45.9,68.9,103.4,68.9,172.3s-23,126.4-68.9,172.3s-103.4,68.9-172.3,68.9C2664.9,2033.3,2021.7,2033.3,2021.7,2033.3z
			 M3503.5,2033.3v-482.5c0-199.1-72.8-371.4-218.3-516.9c-145.5-145.5-317.8-218.3-516.9-218.3h-976.4
			c-199.1,0-371.4,72.8-516.9,218.3s-218.3,317.8-218.3,516.9v1711.6c0,199.1,72.8,371.4,218.3,516.9s317.8,218.3,516.9,218.3
			h1470.3c199.1,0,371.4-72.8,516.9-218.3c145.5-145.5,218.3-317.8,218.3-516.9v-735.2c0-68.9-23-126.4-68.9-172.3
			c-45.9-45.9-103.4-68.9-172.3-68.9c-68.9,0-130.2-23-183.8-68.9C3526.5,2163.5,3503.5,2102.3,3503.5,2033.3z M4491.4,80.5
			c130.2,0,241.2,49.8,333.1,149.3c99.6,91.9,149.3,202.9,149.3,333.1v3928.6c0,130.2-49.8,245.1-149.3,344.6
			c-91.9,91.9-202.9,137.8-333.1,137.8H562.8c-130.2,0-245.1-45.9-344.6-137.8c-91.9-99.6-137.8-214.4-137.8-344.6V563
			c0-130.2,45.9-241.2,137.8-333.1c99.6-99.6,214.4-149.3,344.6-149.3C562.8,80.5,4491.4,80.5,4491.4,80.5z"/>
	</g>
	<path class="st1" d="M1688.1,3986.3c-228.2-29.3-451.7-196.6-558.2-418c-69.2-143.8-64.7-62.4-64.7-1158.3
		c0-928,0.8-979.8,16.2-1037.2c68.7-256.3,273.8-460,537-533.4c68.4-19.1,75.5-19.3,656.9-19.5c582-0.2,588.5,0,664.3,19.3
		c204.2,52,390.1,203.6,484.9,395.4c66.7,135.1,67.2,138.7,73.1,522.9l5.2,341.4l22.5,47.5c43.2,91.3,98.9,126.7,225.3,143.2
		c94.9,12.4,135.2,28.5,176.1,70.7c62.9,64.8,60.2,39.6,60.2,564.1c0,470,0,471.2-20.3,535.6c-41.9,133.3-108.5,238-214.3,336.9
		c-115.6,107.9-241.9,168.7-395.2,190C3274.6,3998.3,1777.9,3997.8,1688.1,3986.3L1688.1,3986.3z M3122.4,3245.3
		c51.5-23.5,88.9-58.7,114.8-108.2c19.9-37.9,23.2-54.8,23.2-117.7c0-84.9-14-119.4-73.2-180.4c-71.5-73.6-35.1-69.8-666.1-70
		l-558-0.2l-44.5,22.2c-81.1,40.4-131.7,118-138.4,212.2c-7.5,105.2,39.7,191.2,129.4,235.9l44.9,22.4l566.6-0.2
		C3050.9,3261.1,3090.1,3260.1,3122.4,3245.3L3122.4,3245.3L3122.4,3245.3z M2768,2013.4c93.1-44.1,137.9-116.1,137.9-221.4
		c0-104.8-45.9-178.6-137.9-221.6l-43.2-20.2l-376.6-0.1c-433.8-0.1-433.3-0.2-501.8,70.2c-47.8,49-68.1,101.6-68.1,176.3
		c0,97,64.9,193.2,150.9,223.8c28.2,10,108.2,12.5,415.2,13l380.3,0.6L2768,2013.4L2768,2013.4L2768,2013.4z"/>
</g>
</svg>
