<?xml version="1.0" encoding="utf-8"?>
<!-- Generator: Adobe Illustrator 22.1.0, SVG Export Plug-In . SVG Version: 6.00 Build 0)  -->
<svg version="1.1" id="Layer_1" xmlns="http://www.w3.org/2000/svg" xmlns:xlink="http://www.w3.org/1999/xlink" x="0px" y="0px"
	 viewBox="0 0 5000 5000" style="enable-background:new 0 0 5000 5000;" xml:space="preserve">
<style type="text/css">
	.st0{fill:#21759B;}
</style>
<g>
	<path class="st0" d="M598.1,2499.9c0,752.8,437.5,1403.3,1071.9,1711.6L762.8,1726C657.3,1962.5,598.1,2224.2,598.1,2499.9z"/>
	<path class="st0" d="M3783.8,2404c0-235-84.4-397.8-156.8-524.5c-96.4-156.7-186.8-289.3-186.8-446
		c0-174.8,132.6-337.6,319.4-337.6c8.4,0,16.4,1,24.6,1.5c-338.4-310-789.2-499.2-1284.3-499.2c-664.4,0-1249,340.9-1589,857.2
		c44.6,1.3,86.7,2.3,122.4,2.3c198.9,0,506.8-24.1,506.8-24.1c102.5-6,114.6,144.5,12.2,156.7c0,0-103,12.1-217.7,18.1l692.6,2060
		l416.2-1248.2l-296.3-811.8c-102.4-6-199.4-18.1-199.4-18.1c-102.5-6-90.5-162.7,12-156.7c0,0,314.1,24.1,500.9,24.1
		c198.9,0,506.8-24.1,506.8-24.1c102.6-6,114.6,144.5,12.2,156.7c0,0-103.2,12.1-217.7,18.1l687.3,2044.4l189.7-633.9
		C3721.3,2755.7,3783.8,2566.8,3783.8,2404z"/>
	<path class="st0" d="M2533.3,2666.3l-570.6,1658.1c170.4,50.1,350.6,77.5,537.2,77.5c221.5,0,433.9-38.3,631.6-107.8
		c-5.1-8.1-9.7-16.8-13.5-26.2L2533.3,2666.3z"/>
	<path class="st0" d="M4168.7,1587.5c8.2,60.6,12.8,125.6,12.8,195.6c0,193-36,409.9-144.6,681.2L3456,4143.9
		c565.4-329.7,945.7-942.3,945.7-1643.9C4401.7,2169.3,4317.3,1858.4,4168.7,1587.5z"/>
	<path class="st0" d="M2499.9,283.1C1277.6,283.1,283,1277.6,283,2499.9c0,1222.5,994.6,2217,2216.9,2217
		c1222.4,0,2217.1-994.4,2217.1-2217C4717,1277.6,3722.3,283.1,2499.9,283.1z M2499.9,4615.3c-1166.3,0-2115.3-949-2115.3-2115.4
		c0-1166.3,948.9-2115.2,2115.3-2115.2c1166.3,0,2115.2,948.9,2115.2,2115.2C4615.1,3666.4,3666.2,4615.3,2499.9,4615.3z"/>
</g>
</svg>
